<svg width="12" height="12" viewBox="0 0 12 12" fill="none" xmlns="http://www.w3.org/2000/svg">
<path d="M7 1.00003C7 0.447746 6.55229 3.05176e-05 6 3.05176e-05C5.44772 3.05176e-05 5 0.447746 5 1.00003H7ZM5 11C5 11.5523 5.44772 12 6 12C6.55229 12 7 11.5523 7 11H5ZM1 5.00003C0.447715 5.00003 0 5.44775 0 6.00003C0 6.55232 0.447715 7.00003 1 7.00003V5.00003ZM11 7.00003C11.5523 7.00003 12 6.55232 12 6.00003C12 5.44775 11.5523 5.00003 11 5.00003V7.00003ZM5 1.00003V11H7V1.00003H5ZM1 7.00003H11V5.00003H1V7.00003Z" fill="#48A5EA"/>
</svg>
