<svg width="150" height="49" viewBox="0 0 150 49" fill="none" xmlns="http://www.w3.org/2000/svg">
<path fill-rule="evenodd" clip-rule="evenodd" d="M9.5 7.63187C8.46154 7.63187 8.09341 7.93407 8.09341 9.07143V14.8297H3.09341C2.07143 14.8297 1.64835 15.1264 1.64835 16.2527V18.3242C1.64835 19.3297 2.07143 19.7473 3.09341 19.7473H8.09341V34.0055C8.09341 39.044 9.07143 42.4176 11.0934 44.1758C13.0549 45.989 16.4341 46.8132 21.3132 46.6923C22.456 46.6319 22.8187 46.2802 22.8187 45.2857V43.1813C22.8187 42.0659 22.456 41.7747 21.3132 41.7747C18.3022 41.7747 16.2527 41.2253 15.1703 40.1978C14.0824 39.1648 13.544 37.1044 13.544 33.8846V19.7473H21.4341C22.456 19.7473 22.8187 19.3297 22.8187 18.3242V16.2527C22.8187 15.2418 22.456 14.8297 21.4341 14.8297H13.544V9.07143C13.544 7.93407 13.1154 7.63187 12.0714 7.63187H9.5Z" fill="#006291"/>
<path fill-rule="evenodd" clip-rule="evenodd" d="M40.9396 14.2033C36.6044 14.2637 32.9286 14.9231 29.8681 16.0659C27.967 16.8407 27.5385 17.5055 27.5385 19.4231V44.5879C27.5385 45.6099 27.9066 46.0275 28.9506 46.0275H31.522C32.6868 46.0275 32.989 45.7308 32.989 44.5879V21.3407C32.989 20.7418 33.2912 20.3187 33.8352 20.1429C36.0604 19.4835 38.3516 19.1209 40.7582 19.1209H42.8681C44.011 19.1209 44.3132 18.7033 44.3132 17.6813V15.6429C44.3132 14.6264 44.011 14.2033 42.8681 14.2033H40.9396Z" fill="#006291"/>
<path fill-rule="evenodd" clip-rule="evenodd" d="M67.0659 40.2692C67.0659 40.9231 66.7582 41.3407 66.1429 41.5824C64.7198 42.0549 62.4341 42.2967 59.2857 42.2967C53.544 42.2967 51.8132 40.6868 51.8132 37.2912C51.8132 33.7747 53.7253 32.2857 59.4066 32.2857C61.1978 32.2857 63.7912 32.4615 67.0659 32.7582V40.2692ZM47.3901 20.5989C46.9066 21.544 47.1484 22.1978 48.1813 22.6099L50.0549 23.4396C51.2088 23.8516 51.3297 23.6758 52.0604 22.7253C53.6044 20.3022 56.1374 19.1209 59.7198 19.1209C65.1539 19.1209 67.0659 21.6044 67.0659 26.1538V28.4011C64.5989 28.1044 62.2473 27.989 60.0275 27.989C50.1154 27.989 46.3626 30.4011 46.3626 37.2912C46.3626 40.5659 47.3297 42.9231 49.2088 44.3571C51.0879 45.8462 54.6539 46.5879 59.7802 46.5879C64.4121 46.5879 67.9121 46.0769 70.3352 45.0989C72.033 44.4121 72.5165 43.8407 72.5165 41.8187V26.3352C72.5165 18.9396 69.1264 14.2033 59.8407 14.2033C53.7253 14.2033 49.5714 16.3571 47.3901 20.5989Z" fill="#006291"/>
<path fill-rule="evenodd" clip-rule="evenodd" d="M102.445 14.8681C100.758 14.8681 100.335 15.1099 99.9121 16.3132L93.2088 33.9451C92.3626 36.1319 91.6374 39.5934 91.5769 39.7143H91.3352C91.2143 39.533 90.3681 36.1319 89.6429 33.8846L82.5769 16.3297C82.1538 15.1099 81.7308 14.8681 80.0385 14.8681H78.2308C76.7802 14.8681 76.478 15.2967 77.022 16.5714L88.6758 44.6374C89.0385 45.489 89.7033 45.8846 90.6703 45.8846H92.1813C93.1484 45.8846 93.8132 45.489 94.1703 44.6374L105.83 16.511C106.308 15.1099 106.071 14.8681 104.681 14.8681H102.445Z" fill="#006291"/>
<path fill-rule="evenodd" clip-rule="evenodd" d="M131.06 28.044H114.549V26.2857C114.549 21.4835 117.445 18.6319 122.802 18.6319C128.165 18.6319 131.06 21.4231 131.06 26.2857V28.044ZM109.099 34.4835C109.099 42.0879 113.571 46.5 122.566 46.5C128.83 46.5 133.203 44.6264 135.588 40.7198C136.264 39.7088 136.082 38.9396 135.038 38.4011L133.385 37.5714C132.346 36.9176 131.731 37.0934 131 38.1044C129.374 40.8407 126.538 42.2033 122.626 42.2033C117.385 42.2033 114.549 39.6484 114.549 35.0769V32.2253H134.242C135.775 32.2253 136.511 31.5 136.511 30.1044V26.5879C136.511 19.0549 131.731 14.3352 122.802 14.3352C113.94 14.3352 109.099 18.7527 109.099 27.0165V34.4835Z" fill="#006291"/>
<path fill-rule="evenodd" clip-rule="evenodd" d="M147.802 3.08791C147.802 1.95055 147.374 1.64835 146.33 1.64835H143.824C142.659 1.64835 142.352 1.95055 142.352 3.08791V44.5879C142.352 45.7308 142.659 46.0275 143.824 46.0275H146.33C147.374 46.0275 147.802 45.7308 147.802 44.5879V3.08791Z" fill="#006291"/>
<path fill-rule="evenodd" clip-rule="evenodd" d="M115.863 1.88461C115.308 1.88461 115.17 1.96703 115.033 2.36264L112.83 8.18132C112.555 8.90659 112.313 10.0495 112.297 10.0879H112.214C112.176 10.0275 111.901 8.90659 111.659 8.16483L109.341 2.36813C109.203 1.96703 109.066 1.88461 108.511 1.88461H107.912C107.44 1.88461 107.341 2.02747 107.516 2.44505L111.346 11.7143C111.462 11.9945 111.681 12.1264 112 12.1264H112.494C112.813 12.1264 113.027 11.9945 113.148 11.7143L116.973 2.42857C117.132 1.96703 117.055 1.88461 116.599 1.88461H115.863Z" fill="#FFBF00"/>
<path fill-rule="evenodd" clip-rule="evenodd" d="M125.258 6.23626H119.835V5.65385C119.835 4.07143 120.786 3.12637 122.544 3.12637C124.308 3.12637 125.258 4.04945 125.258 5.65385V6.23626ZM118.049 8.36264C118.049 10.8736 119.516 12.3297 122.467 12.3297C124.522 12.3297 125.962 11.7143 126.742 10.4231C126.967 10.0879 126.907 9.83517 126.56 9.65385L126.022 9.37912C125.676 9.16484 125.478 9.22528 125.236 9.56044C124.703 10.4615 123.775 10.9121 122.489 10.9121C120.769 10.9121 119.835 10.0659 119.835 8.55495V7.61539H126.302C126.802 7.61539 127.044 7.37363 127.044 6.91758V5.75275C127.044 3.26923 125.478 1.70879 122.544 1.70879C119.637 1.70879 118.049 3.17033 118.049 5.89561V8.36264Z" fill="#FFBF00"/>
<path fill-rule="evenodd" clip-rule="evenodd" d="M135.758 6.23626H130.341V5.65385C130.341 4.07143 131.291 3.12637 133.049 3.12637C134.808 3.12637 135.758 4.04945 135.758 5.65385V6.23626ZM128.549 8.36264C128.549 10.8736 130.016 12.3297 132.973 12.3297C135.027 12.3297 136.462 11.7143 137.247 10.4231C137.467 10.0879 137.407 9.83517 137.066 9.65385L136.522 9.37912C136.181 9.16484 135.978 9.22528 135.742 9.56044C135.203 10.4615 134.275 10.9121 132.989 10.9121C131.269 10.9121 130.341 10.0659 130.341 8.55495V7.61539H136.802C137.308 7.61539 137.549 7.37363 137.549 6.91758V5.75275C137.549 3.26923 135.978 1.70879 133.049 1.70879C130.137 1.70879 128.549 3.17033 128.549 5.89561V8.36264Z" fill="#FFBF00"/>
</svg>
